<?xml version="1.0" encoding="UTF-8" standalone="no"?>
<svg
   viewBox="0 0 36 40"
   version="1.1"
   id="svg2"
   sodipodi:docname="1f590_changed_gtg7.svg"
   inkscape:version="1.4.2 (ebf0e940d0, 2025-05-08)"
   width="36"
   height="40"
   inkscape:export-filename="manual_mode_xdd.png"
   inkscape:export-xdpi="100.8"
   inkscape:export-ydpi="100.8"
   xmlns:inkscape="http://www.inkscape.org/namespaces/inkscape"
   xmlns:sodipodi="http://sodipodi.sourceforge.net/DTD/sodipodi-0.dtd"
   xmlns="http://www.w3.org/2000/svg"
   xmlns:svg="http://www.w3.org/2000/svg">
  <defs
     id="defs2" />
  <sodipodi:namedview
     id="namedview2"
     pagecolor="#ffffff"
     bordercolor="#000000"
     borderopacity="0.25"
     inkscape:showpageshadow="2"
     inkscape:pageopacity="0.0"
     inkscape:pagecheckerboard="0"
     inkscape:deskcolor="#d1d1d1"
     showgrid="false"
     inkscape:zoom="16"
     inkscape:cx="12.5625"
     inkscape:cy="20.59375"
     inkscape:window-width="2556"
     inkscape:window-height="1022"
     inkscape:window-x="1080"
     inkscape:window-y="864"
     inkscape:window-maximized="1"
     inkscape:current-layer="svg2" />
  <path
     fill="#ffdc5d"
     d="m 4.7248873,18.219 c 1.381,-0.611 3.354,0.208 4.75,2.188 0.9169997,1.3 1.1869997,3.151 2.3909997,3.344 0.46,0.074 0.71,-0.206 0.84,-0.609 0.137,-0.68 0.107,-1.731 -0.147,-3.201 L 9.8188873,7.626 c -0.218,-0.941 0.2929997,-1.852 1.5229997,-2.149 1.23,-0.297 2.155,0.306 2.374,1.247 l 2.446,11.166 c 0.493,2.466 1.407,2.018 1.186,-0.775 v -10e-4 l -0.701,-13.092 c -0.057,-1.012 0.721,-1.839 1.871,-1.883 1.15,-0.044 1.979,0.646 2.038,1.657 l 0.668,13.409 c 0.143,2.707 1.112,1.687 1.322,-0.274 l 1.554,-10.848 c 0.159,-1.023 1.118,-1.73 2.268,-1.546 1.15,0.185 1.845,1.136 1.686,2.159 l -1.495,9.914 c -0.593,3.785 0.182,4.833 1.458,0.723 l 1.594,-6.025 c 0.26,-0.967 1.213,-1.567 2.41,-1.231 1.197,0.336 1.713,1.299 1.454,2.266 l -1.558,5.663 c -0.651,4.077 -0.651,5.686 -0.651,8.493 0,2.807 -1.291,11.501 -11.166,11.501 -9.875,0 -11.9059997,-10.031 -11.9999997,-10.666 0,0 -0.123,-1.48 -1.156,-2.865 -1.469,-1.969 -2.5,-3.156 -3.125,-3.866 -0.317,-0.359 -0.625,-1.707 0.906,-2.384 z"
     id="path1"
     style="fill:#ffcfee;fill-opacity:1;stroke:#dc00e9;stroke-width:2.5;stroke-dasharray:none;stroke-opacity:0.705882;paint-order:markers stroke fill" />
  <path
     fill="#ef9645"
     d="m 12.188887,23.741 c 0.3,-0.122 0.554,-0.436 0.584,-1.119 1.892,0.259 4.451,0.789 6.42,2.715 2.556,2.499 2.992,5.2 2.971,7.007 -0.017,1.457 -0.812,2.147 -1.045,-0.012 -0.293,-2.727 -2.282,-8.143 -8.93,-8.591 z"
     id="path2"
     style="fill:#ff7ef5;fill-opacity:1" />
</svg>
