<?xml version="1.0" encoding="UTF-8" standalone="no"?>
<svg
   viewBox="0 0 36 36"
   version="1.1"
   id="svg2"
   sodipodi:docname="1f590_changed_alt_gtg7.svg"
   inkscape:export-filename="manual_mode_dxx.png"
   inkscape:export-xdpi="112"
   inkscape:export-ydpi="112"
   inkscape:version="1.4.2 (ebf0e940d0, 2025-05-08)"
   xmlns:inkscape="http://www.inkscape.org/namespaces/inkscape"
   xmlns:sodipodi="http://sodipodi.sourceforge.net/DTD/sodipodi-0.dtd"
   xmlns="http://www.w3.org/2000/svg"
   xmlns:svg="http://www.w3.org/2000/svg">
  <defs
     id="defs2" />
  <sodipodi:namedview
     id="namedview2"
     pagecolor="#ffffff"
     bordercolor="#000000"
     borderopacity="0.25"
     inkscape:showpageshadow="2"
     inkscape:pageopacity="0.0"
     inkscape:pagecheckerboard="0"
     inkscape:deskcolor="#d1d1d1"
     inkscape:zoom="16"
     inkscape:cx="12.09375"
     inkscape:cy="15.84375"
     inkscape:window-width="2556"
     inkscape:window-height="1022"
     inkscape:window-x="1080"
     inkscape:window-y="864"
     inkscape:window-maximized="1"
     inkscape:current-layer="svg2" />
  <path
     id="path1"
     d="M 18.517578 0.13867188 C 17.367578 0.18267188 16.589484 1.0094844 16.646484 2.0214844 L 17.347656 15.113281 L 17.347656 15.115234 C 17.568656 17.908234 16.655109 18.356625 16.162109 15.890625 L 13.716797 4.7246094 C 13.497797 3.7836094 12.571797 3.1795625 11.341797 3.4765625 C 10.111797 3.7735625 9.6003594 4.6859531 9.8183594 5.6269531 L 12.558594 17.941406 C 12.78489 19.251072 12.833138 20.227806 12.744141 20.90625 C 12.758222 20.819492 12.768917 20.723999 12.773438 20.621094 C 14.665437 20.880094 17.224359 21.411891 19.193359 23.337891 C 21.749359 25.836891 22.185063 28.53675 22.164062 30.34375 C 22.147063 31.80075 21.352141 32.491031 21.119141 30.332031 C 20.826141 27.605031 18.837453 22.188234 12.189453 21.740234 C 12.193052 21.738771 12.195633 21.737847 12.199219 21.736328 C 12.102598 21.764729 11.991756 21.772307 11.865234 21.751953 C 10.661234 21.558953 10.391609 19.70625 9.4746094 18.40625 C 8.0786094 16.42625 6.1056094 15.60775 4.7246094 16.21875 C 3.1936094 16.89575 3.5013594 18.244516 3.8183594 18.603516 C 4.4433594 19.313516 5.4743594 20.49975 6.9433594 22.46875 C 7.9763594 23.85375 8.0996094 25.333984 8.0996094 25.333984 C 8.1936094 25.968984 10.224609 36 20.099609 36 C 29.974609 36 31.265625 27.305047 31.265625 24.498047 C 31.265625 21.691047 31.265016 20.082859 31.916016 16.005859 L 33.474609 10.34375 C 33.733609 9.37675 33.218484 8.4121719 32.021484 8.0761719 C 30.824484 7.7401719 29.871328 8.3415937 29.611328 9.3085938 L 28.017578 15.332031 C 26.741578 19.442031 25.965594 18.394375 26.558594 14.609375 L 28.054688 4.6953125 C 28.213687 3.6723125 27.517187 2.7221094 26.367188 2.5371094 C 25.217187 2.3531094 24.258609 3.0590313 24.099609 4.0820312 L 22.544922 14.931641 C 22.334922 16.892641 21.367609 17.912078 21.224609 15.205078 L 20.556641 1.796875 C 20.497641 0.785875 19.667578 0.094671875 18.517578 0.13867188 z "
     style="fill:#8e6ad8;fill-opacity:1" />
</svg>
