<?xml version="1.0" encoding="UTF-8" standalone="no"?>
<svg
   viewBox="0 0 38 38"
   version="1.1"
   id="svg8"
   sodipodi:docname="1f698_changed_alt_gtg7.svg"
   inkscape:version="1.4.2 (ebf0e940d0, 2025-05-08)"
   width="38"
   height="38"
   inkscape:export-filename="auto_mode_dxx.png"
   inkscape:export-xdpi="106.10526"
   inkscape:export-ydpi="106.10526"
   xmlns:inkscape="http://www.inkscape.org/namespaces/inkscape"
   xmlns:sodipodi="http://sodipodi.sourceforge.net/DTD/sodipodi-0.dtd"
   xmlns="http://www.w3.org/2000/svg"
   xmlns:svg="http://www.w3.org/2000/svg">
  <defs
     id="defs8">
    <inkscape:path-effect
       effect="powerclip"
       message=""
       id="path-effect28"
       is_visible="true"
       lpeversion="1"
       inverse="true"
       flatten="false"
       hide_clip="false" />
    <inkscape:path-effect
       effect="powerclip"
       message=""
       id="path-effect27"
       is_visible="true"
       lpeversion="1"
       inverse="true"
       flatten="false"
       hide_clip="false" />
    <clipPath
       clipPathUnits="userSpaceOnUse"
       id="clipPath27">
      <path
         id="path27"
         style="display:none;mix-blend-mode:normal;fill:#ff1919;fill-opacity:1;stroke:none;stroke-width:2;stroke-linejoin:miter;stroke-dasharray:none;stroke-opacity:0.705882;paint-order:stroke fill markers"
         inkscape:highlight-color="#ff5555"
         d="M 16.681641,3.2617188 C 13.866478,3.3662804 10.991425,3.4026777 8.2675781,4.1894531 6.0679969,5.1950674 5.0802466,7.6187585 4.3422802,9.7669397 3.7679689,11.526991 3.3754942,13.343198 3.1054688,15.173828 c -1.6147742,0.75049 -1.9620204,2.741673 -2.0843127,4.340262 -0.0347365,2.918764 -0.0379312,5.843573 0.00228,8.761301 0.3286522,2.489109 2.5714394,4.286198 4.9387019,4.743589 5.091177,1.283503 10.385835,0.93276 15.585097,0.96295 3.316638,-0.06578 6.69798,-0.295863 9.853155,-1.390133 C 33.594026,31.758642 35.266272,29.498011 35,27.1 34.95609,24.333391 35.08962,21.559429 34.9304,18.797348 34.800006,17.40839 34.239118,15.867457 32.904297,15.222656 32.390488,12.087991 31.72552,8.8526515 29.974609,6.1484375 29.156977,4.8524831 27.782746,3.9547458 26.245034,3.8219159 23.089109,3.2961073 19.874381,3.2293323 16.681641,3.2617188 Z" />
      <path
         id="lpe_path-effect27"
         style="display:inline;mix-blend-mode:normal;fill:#ff1919;fill-opacity:1;stroke:none;stroke-width:2;stroke-linejoin:miter;stroke-dasharray:none;stroke-opacity:0.705882;paint-order:stroke fill markers"
         class="powerclip"
         d="M -4,17 H 40 V 41 H -4 Z M 16.681641,3.2617188 C 13.866478,3.3662804 10.991425,3.4026777 8.2675781,4.1894531 6.0679969,5.1950674 5.0802466,7.6187585 4.3422802,9.7669397 3.7679689,11.526991 3.3754942,13.343198 3.1054688,15.173828 c -1.6147742,0.75049 -1.9620204,2.741673 -2.0843127,4.340262 -0.0347365,2.918764 -0.0379312,5.843573 0.00228,8.761301 0.3286522,2.489109 2.5714394,4.286198 4.9387019,4.743589 5.091177,1.283503 10.385835,0.93276 15.585097,0.96295 3.316638,-0.06578 6.69798,-0.295863 9.853155,-1.390133 C 33.594026,31.758642 35.266272,29.498011 35,27.1 34.95609,24.333391 35.08962,21.559429 34.9304,18.797348 34.800006,17.40839 34.239118,15.867457 32.904297,15.222656 32.390488,12.087991 31.72552,8.8526515 29.974609,6.1484375 29.156977,4.8524831 27.782746,3.9547458 26.245034,3.8219159 23.089109,3.2961073 19.874381,3.2293323 16.681641,3.2617188 Z" />
    </clipPath>
    <clipPath
       clipPathUnits="userSpaceOnUse"
       id="clipPath28">
      <path
         id="path28"
         style="display:none;mix-blend-mode:normal;fill:#46ff19;fill-opacity:1;stroke:none;stroke-width:2;stroke-linejoin:miter;stroke-dasharray:none;stroke-opacity:0.705882;paint-order:stroke fill markers"
         inkscape:highlight-color="#ff5555"
         d="m 16.681641,3.2617188 c -2.815163,0.104562 -5.690216,0.140959 -8.414063,0.927734 -2.199581,1.005615 -3.187331,3.429306 -3.925297,5.577487 -0.574312,1.7600512 -0.966786,3.5762582 -1.236812,5.4068882 -1.614774,0.75049 -1.96202,2.741673 -2.084313,4.340262 -0.03474,2.918764 -0.03793,5.843573 0.0023,8.761301 0.328653,2.489109 2.57144,4.286198 4.938702,4.743589 5.091177,1.283503 10.385835,0.93276 15.585097,0.96295 3.316638,-0.06578 6.69798,-0.295863 9.853155,-1.390133 C 33.594046,31.758642 35.266292,29.498011 35.00002,27.1 34.95611,24.333391 35.08964,21.559429 34.93042,18.797348 34.800026,17.40839 34.239138,15.867457 32.904317,15.222656 32.390508,12.087991 31.72554,8.8526518 29.974629,6.1484378 29.156997,4.8524828 27.782766,3.9547458 26.245054,3.8219158 23.089129,3.2961068 19.874401,3.2293318 16.681661,3.2617188 Z" />
      <path
         id="lpe_path-effect28"
         style="display:inline;mix-blend-mode:normal;fill:#46ff19;fill-opacity:1;stroke:none;stroke-width:2;stroke-linejoin:miter;stroke-dasharray:none;stroke-opacity:0.705882;paint-order:stroke fill markers"
         class="powerclip"
         d="M -6,8 H 42 V 23 H -6 Z M 16.681641,3.2617188 c -2.815163,0.104562 -5.690216,0.140959 -8.414063,0.927734 -2.199581,1.005615 -3.187331,3.429306 -3.925297,5.577487 -0.574312,1.7600512 -0.966786,3.5762582 -1.236812,5.4068882 -1.614774,0.75049 -1.96202,2.741673 -2.084313,4.340262 -0.03474,2.918764 -0.03793,5.843573 0.0023,8.761301 0.328653,2.489109 2.57144,4.286198 4.938702,4.743589 5.091177,1.283503 10.385835,0.93276 15.585097,0.96295 3.316638,-0.06578 6.69798,-0.295863 9.853155,-1.390133 C 33.594046,31.758642 35.266292,29.498011 35.00002,27.1 34.95611,24.333391 35.08964,21.559429 34.93042,18.797348 34.800026,17.40839 34.239138,15.867457 32.904317,15.222656 32.390508,12.087991 31.72554,8.8526518 29.974629,6.1484378 29.156997,4.8524828 27.782766,3.9547458 26.245054,3.8219158 23.089129,3.2961068 19.874401,3.2293318 16.681661,3.2617188 Z" />
    </clipPath>
  </defs>
  <sodipodi:namedview
     id="namedview8"
     pagecolor="#ffffff"
     bordercolor="#000000"
     borderopacity="0.25"
     inkscape:showpageshadow="2"
     inkscape:pageopacity="0.0"
     inkscape:pagecheckerboard="0"
     inkscape:deskcolor="#d1d1d1"
     inkscape:zoom="8"
     inkscape:cx="10.25"
     inkscape:cy="18.0625"
     inkscape:window-width="2556"
     inkscape:window-height="1022"
     inkscape:window-x="1080"
     inkscape:window-y="864"
     inkscape:window-maximized="1"
     inkscape:current-layer="svg8" />
  <path
     fill="#292f33"
     d="m 34,33 c 0,1.104 -0.896,2 -2,2 h -3 c -1.104,0 -2,-0.896 -2,-2 v -8 c 0,-1.104 0.896,-2 2,-2 h 3 c 1.104,0 2,0.896 2,2 z M 9,33 c 0,1.104 -0.896,2 -2,2 H 4 C 2.896,35 2,34.104 2,33 v -8 c 0,-1.104 0.896,-2 2,-2 h 3 c 1.104,0 2,0.896 2,2 z"
     id="path1"
     style="display:inline;mix-blend-mode:normal;fill:#ffcfee;fill-opacity:1;stroke:#dc00e9;stroke-width:2;stroke-linejoin:miter;stroke-dasharray:none;stroke-opacity:0.705882;paint-order:stroke fill markers"
     inkscape:highlight-color="#ff5555"
     clip-path="url(#clipPath27)"
     inkscape:path-effect="#path-effect27"
     inkscape:original-d="m 34,33 c 0,1.104 -0.896,2 -2,2 h -3 c -1.104,0 -2,-0.896 -2,-2 v -8 c 0,-1.104 0.896,-2 2,-2 h 3 c 1.104,0 2,0.896 2,2 z M 9,33 c 0,1.104 -0.896,2 -2,2 H 4 C 2.896,35 2,34.104 2,33 v -8 c 0,-1.104 0.896,-2 2,-2 h 3 c 1.104,0 2,0.896 2,2 z"
     transform="translate(1)" />
  <path
     fill="#3b88c3"
     d="M 5,15.5 C 5,16.329 4.329,17 3.5,17 h -2 C 0.671,17 0,16.329 0,15.5 0,14.671 0.671,14 1.5,14 h 2 C 4.329,14 5,14.671 5,15.5 Z m 26,0 c 0,0.829 0.672,1.5 1.5,1.5 h 2 C 35.328,17 36,16.329 36,15.5 36,14.671 35.328,14 34.5,14 h -2 C 31.672,14 31,14.671 31,15.5 Z"
     id="path4"
     style="display:inline;mix-blend-mode:normal;fill:#ffcfee;fill-opacity:1;stroke:#dc00e9;stroke-width:2;stroke-linejoin:miter;stroke-dasharray:none;stroke-opacity:0.705882;paint-order:stroke fill markers"
     inkscape:highlight-color="#ff5555"
     clip-path="url(#clipPath28)"
     inkscape:path-effect="#path-effect28"
     inkscape:original-d="M 5,15.5 C 5,16.329 4.329,17 3.5,17 h -2 C 0.671,17 0,16.329 0,15.5 0,14.671 0.671,14 1.5,14 h 2 C 4.329,14 5,14.671 5,15.5 Z m 26,0 c 0,0.829 0.672,1.5 1.5,1.5 h 2 C 35.328,17 36,16.329 36,15.5 36,14.671 35.328,14 34.5,14 h -2 C 31.672,14 31,14.671 31,15.5 Z"
     transform="translate(1)" />
  <path
     fill="#3b88c3"
     d="m 10,5 c 4,-1 14,-1 18,0 3.881,0.97 5,11 5,11 0,0 2,0 2,4 v 8 c 0,0 -0.119,3.03 -4,4 -4,1 -7,1 -12,1 C 14,33 11,33 7,32 3.12,31.03 3,28 3,28 V 20 C 3,20 3,16 5,16 5,16 6.12,5.97 10,5 Z"
     id="path2"
     style="display:inline;mix-blend-mode:normal;fill:#ffcfee;fill-opacity:1;stroke:#dc00e9;stroke-width:2;stroke-linejoin:miter;stroke-dasharray:none;stroke-opacity:0.705882;paint-order:stroke fill markers"
     inkscape:highlight-color="#ff5555" />
  <path
     fill="#bbddf5"
     d="m 19,15 c 3.905,0 8.623,0.2 12,0.561 L 30,10 C 29,7 23,7 19,7 15,7 9,7 8,10 L 7,15.561 C 10.377,15.2 15.095,15 19,15 Z"
     id="path3"
     style="display:inline;fill:#ff7ef5;fill-opacity:1" />
  <path
     fill="#FFCC4D"
     d="m 12,23 c 0,1.657 -1.343,3 -3,3 H 8 C 6.343,26 5,24.657 5,23 5,21.343 6.343,20 8,20 h 1 c 1.657,0 3,1.343 3,3 z m 21,0 c 0,1.657 -1.344,3 -3,3 h -1 c -1.656,0 -3,-1.343 -3,-3 0,-1.657 1.344,-3 3,-3 h 1 c 1.656,0 3,1.343 3,3 z"
     id="path5"
     style="display:inline;fill:#ff7ef5;fill-opacity:1" />
  <path
     fill="#269"
     d="M 13.001,22 C 12.678,22 12.361,21.87 12.168,21.629167 10.426,19.450833 5.849,18.658333 5.803,18.650833 5.262,18.56 4.911,18.120833 5.02,17.669166 c 0.109,-0.450833 0.632,-0.7425 1.176,-0.6525 0.221,0.03667 5.431,0.9325 7.636,3.688334 0.306,0.383333 0.182,0.9 -0.277,1.155833 C 13.384,21.954167 13.191,22 13.001,22 Z m 11.998,0 c -0.19,0 -0.383,-0.04583 -0.554,-0.14 -0.46,-0.255833 -0.584,-0.7725 -0.277,-1.155833 2.204,-2.755834 7.415,-3.651668 7.636,-3.688334 0.54,-0.08833 1.067,0.201666 1.176,0.6525 0.109,0.451667 -0.241,0.89 -0.782,0.981667 -0.046,0.0075 -4.623,0.8 -6.365,2.978333 C 25.64,21.87 25.322,22 24.999,22 Z"
     id="path6"
     style="display:inline;fill:#ff7ef5;fill-opacity:1;stroke-width:0.912871" />
  <path
     fill="#269"
     d="m 26,27.5 c 0,1.5 -3.134,2.5 -7,2.5 -3.866,0 -7,-1 -7,-2.5 0,-0.828 3.134,-0.5 7,-0.5 3.866,0 7,-0.328 7,0.5 z"
     id="path8"
     style="display:inline;fill:#ff7ef5;fill-opacity:1" />
</svg>
